# xmcd
#
# Track frame offsets:
# 150
# 14015
# 30576
# 42355
# 55562
# 68514
# 84720
# 94587
# 107017
# 118862
# 128715
# 140908
# 154369
# 170418
# 182089
# 192993
#
# Disc length: 2690 seconds
#
#
# Revision: 0
# Processed by: cddbd v1.5.2PL0 Copyright (c) Steve Scherf et al.
# Submitted via: FreeRIP 2.951 
#
DISCID=dc0a8010
DTITLE=Antohnz Orkester - Danskväll på Bliktpunkten
DYEAR=1900
DGENRE=Dansband
TTITLE0=Stopp stanna upp
TTITLE1=California Blue
TTITLE2=Sealed with a kiss
TTITLE3=Can I trust you
TTITLE4=South of the border
TTITLE5=It's now or never
TTITLE6=Får jag lov
TTITLE7=Varje brev
TTITLE8=Lucky lips
TTITLE9=But I do
TTITLE10=Du är min sommar Marie
TTITLE11=Ramona
TTITLE12=Aldrig någonsin....
TTITLE13=Put your head on my shoulder
TTITLE14=En sång till dig
TTITLE15=Teddy Bear
EXTD=
EXTT0=
EXTT1=
EXTT2=
EXTT3=
EXTT4=
EXTT5=
EXTT6=
EXTT7=
EXTT8=
EXTT9=
EXTT10=
EXTT11=
EXTT12=
EXTT13=
EXTT14=
EXTT15=
PLAYORDER=
